<svg width="24" height="24" viewBox="0 0 24 24" fill="none" xmlns="http://www.w3.org/2000/svg">
<circle cx="12.0001" cy="12" r="12" fill="black"/>
<path d="M12.0012 7.08068C13.6047 7.08068 13.7946 7.08771 14.4251 7.11584C15.0112 7.14163 15.3277 7.24009 15.5386 7.32213C15.8176 7.42997 16.0192 7.56124 16.2278 7.76988C16.4388 7.98086 16.5678 8.18011 16.6756 8.45907C16.7576 8.67005 16.8561 8.98886 16.8819 9.57257C16.91 10.2055 16.917 10.3954 16.917 11.9965C16.917 13.5999 16.91 13.7898 16.8819 14.4204C16.8561 15.0064 16.7576 15.3229 16.6756 15.5339C16.5678 15.8129 16.4365 16.0145 16.2278 16.2231C16.0169 16.4341 15.8176 16.563 15.5386 16.6708C15.3277 16.7529 15.0089 16.8513 14.4251 16.8771C13.7922 16.9053 13.6023 16.9123 12.0012 16.9123C10.3978 16.9123 10.2079 16.9053 9.57732 16.8771C8.99127 16.8513 8.6748 16.7529 8.46382 16.6708C8.18486 16.563 7.98326 16.4317 7.77463 16.2231C7.56365 16.0121 7.43472 15.8129 7.32688 15.5339C7.24484 15.3229 7.14638 15.0041 7.12059 14.4204C7.09246 13.7875 7.08543 13.5976 7.08543 11.9965C7.08543 10.393 7.09246 10.2032 7.12059 9.57257C7.14638 8.98652 7.24484 8.67005 7.32688 8.45907C7.43472 8.18011 7.56599 7.97851 7.77463 7.76988C7.98561 7.5589 8.18486 7.42997 8.46382 7.32213C8.6748 7.24009 8.99361 7.14163 9.57732 7.11584C10.2079 7.08771 10.3978 7.08068 12.0012 7.08068ZM12.0012 6C10.372 6 10.1681 6.00703 9.52809 6.03516C8.89047 6.06329 8.4521 6.16644 8.07234 6.31412C7.67617 6.46884 7.34095 6.67279 7.00807 7.00801C6.67285 7.34089 6.4689 7.67611 6.31418 8.06994C6.1665 8.45204 6.06335 8.88806 6.03522 9.52569C6.00709 10.168 6.00006 10.3719 6.00006 12.0012C6.00006 13.6304 6.00709 13.8343 6.03522 14.4743C6.06335 15.1119 6.1665 15.5503 6.31418 15.9301C6.4689 16.3262 6.67285 16.6615 7.00807 16.9943C7.34095 17.3272 7.67617 17.5335 8.07 17.6859C8.4521 17.8336 8.88813 17.9367 9.52575 17.9648C10.1657 17.993 10.3697 18 11.9989 18C13.6281 18 13.8321 17.993 14.472 17.9648C15.1097 17.9367 15.548 17.8336 15.9278 17.6859C16.3216 17.5335 16.6568 17.3272 16.9897 16.9943C17.3226 16.6615 17.5289 16.3262 17.6812 15.9324C17.8289 15.5503 17.9321 15.1143 17.9602 14.4767C17.9883 13.8367 17.9954 13.6327 17.9954 12.0035C17.9954 10.3743 17.9883 10.1703 17.9602 9.53038C17.9321 8.89275 17.8289 8.45439 17.6812 8.07462C17.5336 7.67611 17.3296 7.34089 16.9944 7.00801C16.6615 6.67513 16.3263 6.46884 15.9325 6.31647C15.5504 6.16878 15.1143 6.06564 14.4767 6.03751C13.8344 6.00703 13.6305 6 12.0012 6Z" fill="white"/>
<path d="M12.0012 8.91852C10.2993 8.91852 8.9186 10.2993 8.9186 12.0012C8.9186 13.703 10.2993 15.0838 12.0012 15.0838C13.7031 15.0838 15.0839 13.703 15.0839 12.0012C15.0839 10.2993 13.7031 8.91852 12.0012 8.91852ZM12.0012 14.0008C10.8971 14.0008 10.0016 13.1053 10.0016 12.0012C10.0016 10.897 10.8971 10.0015 12.0012 10.0015C13.1054 10.0015 14.0008 10.897 14.0008 12.0012C14.0008 13.1053 13.1054 14.0008 12.0012 14.0008Z" fill="white"/>
<path d="M15.9254 8.79664C15.9254 9.19515 15.6019 9.51631 15.2058 9.51631C14.8072 9.51631 14.4861 9.19281 14.4861 8.79664C14.4861 8.39812 14.8096 8.07697 15.2058 8.07697C15.6019 8.07697 15.9254 8.40047 15.9254 8.79664Z" fill="white"/>
</svg>
