<svg width="24" height="24" viewBox="0 0 24 24" fill="none" xmlns="http://www.w3.org/2000/svg">
<path fill-rule="evenodd" clip-rule="evenodd" d="M6 4C4.93913 4 3.92172 4.42143 3.17157 5.17157C2.42143 5.92172 2 6.93913 2 8C2 9.54903 3.00787 11.0521 4.11298 12.2186C4.65531 12.7911 5.19933 13.2597 5.60834 13.5854C5.76056 13.7066 5.89351 13.8076 6 13.8863C6.10649 13.8076 6.23944 13.7066 6.39166 13.5854C6.80067 13.2597 7.3447 12.7911 7.88702 12.2186C8.99213 11.0521 10 9.54903 10 8C10 6.93913 9.57857 5.92172 8.82843 5.17157C8.07828 4.42143 7.06087 4 6 4ZM6 14.5C5.72265 14.916 5.72238 14.9158 5.72238 14.9158L5.72095 14.9149L5.71762 14.9127L5.70616 14.9049C5.69642 14.8983 5.68254 14.8888 5.66478 14.8765C5.62927 14.8519 5.57823 14.8161 5.5139 14.7696C5.38527 14.6767 5.20318 14.5411 4.98541 14.3677C4.55067 14.0215 3.96969 13.5214 3.38702 12.9064C2.24213 11.6979 1 9.95097 1 8C1 6.67392 1.52678 5.40215 2.46447 4.46447C3.40215 3.52678 4.67392 3 6 3C7.32608 3 8.59785 3.52678 9.53553 4.46447C10.4732 5.40215 11 6.67392 11 8C11 9.95097 9.75787 11.6979 8.61298 12.9064C8.03031 13.5214 7.44933 14.0215 7.01459 14.3677C6.79682 14.5411 6.61473 14.6767 6.4861 14.7696C6.42177 14.8161 6.37074 14.8519 6.33522 14.8765C6.31746 14.8888 6.30358 14.8983 6.29384 14.9049L6.28238 14.9127L6.27905 14.9149L6.27799 14.9156C6.27799 14.9156 6.27735 14.916 6 14.5ZM6 14.5L6.27735 14.916C6.1094 15.028 5.89033 15.0278 5.72238 14.9158L6 14.5ZM6 7C5.44772 7 5 7.44772 5 8C5 8.55228 5.44772 9 6 9C6.55229 9 7 8.55228 7 8C7 7.44772 6.55229 7 6 7ZM4 8C4 6.89543 4.89543 6 6 6C7.10457 6 8 6.89543 8 8C8 9.10457 7.10457 10 6 10C4.89543 10 4 9.10457 4 8Z" fill="#202020"/>
<g clip-path="url(#clip0_322_420)">
<path fill-rule="evenodd" clip-rule="evenodd" d="M15.7519 9.56588C15.8971 9.48294 16.0741 9.47802 16.2236 9.55279L19.9843 11.4331L23.2519 9.56588C23.4067 9.47745 23.5968 9.47808 23.751 9.56755C23.9051 9.65701 24 9.82177 24 10V18C24 18.1794 23.9039 18.3451 23.7481 18.4341L20.2481 20.4341C20.1029 20.5171 19.9259 20.522 19.7764 20.4472L16.0157 18.5669L12.7481 20.4341C12.5933 20.5225 12.4032 20.5219 12.249 20.4325C12.0949 20.343 12 20.1782 12 20V12C12 11.8206 12.0961 11.6549 12.2519 11.5659L15.7519 9.56588ZM16.5 17.691L19.5 19.191V12.309L16.5 10.809V17.691ZM15.5 10.8616V17.7098L13 19.1384V12.2902L15.5 10.8616ZM20.5 12.2902V19.1384L23 17.7098V10.8616L20.5 12.2902Z" fill="#202020"/>
</g>
<defs>
<clipPath id="clip0_322_420">
<rect width="12" height="12" fill="white" transform="translate(12 9)"/>
</clipPath>
</defs>
</svg>
