<svg width="24" height="24" viewBox="0 0 24 24" fill="none" xmlns="http://www.w3.org/2000/svg">
<path d="M3 22C2.74 22 2.48 21.9 2.29 21.71C2.02 21.44 1.93 21.05 2.05 20.69L3.82 15.37C3.28 14.16 2.99 12.83 3 11.5C3 9.74001 3.49 8.01001 4.42 6.51001C5.35 5.01001 6.67 3.80001 8.25 3.01001C9.56 2.35001 11.08 1.98001 12.5 2.00001H13C15.39 2.13001 17.58 3.11001 19.24 4.76001C20.89 6.41001 21.87 8.61001 22 10.94V11.5C22 12.97 21.66 14.44 20.99 15.75C20.2 17.32 18.99 18.65 17.49 19.58C15.98 20.51 14.26 21.03 12.48 21C11.16 21 9.84 20.72 8.63 20.18L3.31 21.95C3.21 21.99 3.1 22 2.99 22H3ZM12.48 4.00001C11.33 4.00001 10.18 4.27001 9.15 4.79001C7.9 5.41001 6.85 6.37001 6.12 7.56001C5.39 8.75001 5 10.11 5 11.5C5 12.66 5.27 13.82 5.79 14.85C5.91 15.09 5.93 15.36 5.85 15.62L4.58 19.42L8.38 18.15C8.63 18.06 8.91 18.09 9.15 18.21C10.18 18.73 11.35 19 12.5 19C13.9 19 15.26 18.61 16.44 17.88C17.63 17.15 18.58 16.1 19.2 14.86C19.72 13.82 20 12.67 19.99 11.51V11.01C19.89 9.22001 19.12 7.49001 17.81 6.19001C16.51 4.89001 14.77 4.11001 12.93 4.01001H12.49C12.49 4.01001 12.48 4.01001 12.47 4.01001L12.48 4.00001Z" fill="#202020"/>
</svg>
