<svg width="24" height="24" viewBox="0 0 24 24" fill="none" xmlns="http://www.w3.org/2000/svg">
<path d="M19.89 23.93C19.8 23.93 19.71 23.93 19.62 23.92C16.38 23.57 13.25 22.45 10.53 20.69C8.02 19.09 5.83 16.91 4.23 14.39C2.47 11.67 1.36 8.52 1.01 5.28C0.970002 4.85 1.01 4.43 1.15 4.03999C1.28 3.63999 1.49 3.29 1.78 2.98C2.06 2.67 2.4 2.43 2.78 2.26C3.16 2.09 3.57 2.01 3.99 2H6.99C7.68 2.02 8.41 2.25 8.97 2.73C9.52 3.2 9.88 3.85999 9.98 4.57999C10.1 5.47 10.32 6.35 10.63 7.18C10.83 7.71 10.87 8.3 10.75 8.86C10.63 9.42 10.35 9.94 9.95 10.34L9.23 11.06C10.41 12.9 11.97 14.47 13.82 15.65L14.54 14.93C14.95 14.52 15.46 14.25 16.03 14.13C16.59 14.01 17.17 14.05 17.71 14.26C18.54 14.57 19.41 14.79 20.3 14.9C21.04 15 21.7 15.37 22.18 15.93C22.65 16.49 22.9 17.2 22.89 17.93V20.92C22.89 21.34 22.81 21.75 22.64 22.13C22.47 22.52 22.23 22.86 21.92 23.14C21.61 23.43 21.25 23.64 20.85 23.77C20.54 23.88 20.22 23.93 19.89 23.93ZM7.02 3.99999H4C3.86 3.99999 3.72 4.02999 3.6 4.08999C3.47 4.14999 3.36 4.23 3.27 4.32999C3.18 4.42999 3.11 4.54999 3.06 4.68C3.02 4.81 3 4.95 3.01 5.09C3.32 7.99 4.33 10.84 5.92 13.31C7.37 15.59 9.34 17.56 11.62 19.01C14.08 20.61 16.91 21.61 19.82 21.93C19.94 21.94 20.08 21.93 20.21 21.88C20.34 21.84 20.46 21.76 20.57 21.67C20.67 21.58 20.75 21.46 20.81 21.33C20.87 21.2 20.89 21.07 20.89 20.93V17.9C20.89 17.65 20.81 17.41 20.65 17.23C20.49 17.04 20.27 16.92 20.03 16.89C19 16.75 17.98 16.5 17.01 16.14C16.83 16.07 16.64 16.06 16.45 16.1C16.26 16.14 16.09 16.23 15.96 16.37L14.69 17.64C14.37 17.96 13.88 18.02 13.49 17.8C10.83 16.29 8.63 14.09 7.11 11.43C6.89 11.04 6.95 10.55 7.27 10.23L8.54 8.96C8.67 8.83 8.76 8.66 8.8 8.47C8.84 8.27999 8.83 8.08999 8.76 7.91C8.4 6.93 8.14 5.91 8 4.88C7.97 4.65 7.85 4.43 7.66 4.26999C7.48 4.10999 7.25 4.02999 7.01 4.02999L7.02 3.99999ZM18.89 10.95C18.42 10.95 18 10.62 17.91 10.14C17.76 9.36 17.38 8.64 16.81 8.08C16.25 7.52 15.53 7.14 14.75 6.98C14.21 6.87 13.85 6.35 13.96 5.81C14.07 5.27 14.59 4.91 15.13 5.02C16.31 5.25 17.38 5.82 18.22 6.67C19.07 7.52 19.64 8.59 19.87 9.76C19.98 10.3 19.62 10.83 19.08 10.93C19.02 10.94 18.95 10.95 18.89 10.95ZM22.89 10.94C22.39 10.94 21.95 10.56 21.9 10.05C21.7 8.25 20.88 6.56 19.6 5.28C18.32 4 16.63 3.19 14.83 2.99C14.28 2.93 13.89 2.43 13.95 1.89C14.01 1.34 14.52 0.949995 15.05 1.01C17.3 1.26 19.41 2.27999 21.01 3.86999C22.61 5.47 23.63 7.58 23.88 9.83C23.94 10.38 23.55 10.87 23 10.93C22.96 10.93 22.92 10.93 22.89 10.93V10.94Z" fill="#202020"/>
</svg>
